<svg width="40" height="41" viewBox="0 0 40 41" fill="none" xmlns="http://www.w3.org/2000/svg">
<path fill-rule="evenodd" clip-rule="evenodd" d="M37 21.0667L38.375 21.4417C38.5973 21.4872 38.7914 21.6214 38.9125 21.8133C39.0336 22.0051 39.0712 22.2381 39.0167 22.4583L38.1833 25.4583C38.0652 25.9019 37.6107 26.1664 37.1667 26.05L36.8333 25.9583L35.0167 32.725C34.5803 34.3881 33.4931 35.8057 32 36.6583L27.1333 39.4583C25.7314 40.2721 24.0568 40.4742 22.5016 40.0172C20.9464 39.5603 19.6472 38.4844 18.9083 37.0417C18.8174 36.8659 18.7367 36.6851 18.6667 36.5H16.45V36.775C16.45 37.2352 16.0769 37.6083 15.6167 37.6083H11.1667C10.7064 37.6083 10.3333 37.2352 10.3333 36.775V36.5H4.5C3.11928 36.5 2 35.3807 2 34V16.1667H1.725C1.26476 16.1667 0.891663 15.7936 0.891663 15.3333V10.8833C0.891663 10.4231 1.26476 10.05 1.725 10.05H2V4C2 2.61928 3.11928 1.5 4.5 1.5H10.3333V1.225C10.3333 0.764759 10.7064 0.391663 11.1667 0.391663H15.65C16.1102 0.391663 16.4833 0.764759 16.4833 1.225V1.5H34.5C35.8807 1.5 37 2.61928 37 4V10.05H37.275C37.7352 10.05 38.1083 10.4231 38.1083 10.8833V15.3333C38.1083 15.7936 37.7352 16.1667 37.275 16.1667H37V21.0667ZM20.6667 14.5H36.4417V11.7167H20.6667C20.3624 12.2627 19.9447 12.7373 19.4417 13.1083C19.9447 13.4794 20.3624 13.9539 20.6667 14.5ZM16.4833 3.16666H34.5C34.9602 3.16666 35.3333 3.53976 35.3333 4V10.05H21.1667C21.1915 9.90382 21.2082 9.75637 21.2167 9.60833C21.2167 7.2151 19.2766 5.275 16.8833 5.275C16.7409 5.28022 16.599 5.29414 16.4583 5.31666L16.4833 3.16666ZM19.575 9.60833C19.575 8.13557 18.3811 6.94166 16.9083 6.94166C16.2011 6.94166 15.5228 7.22261 15.0227 7.72271C14.5226 8.22281 14.2417 8.90109 14.2417 9.60833V9.89166C15.4056 10.199 16.3134 11.11 16.6167 12.275H16.9083C18.3811 12.275 19.575 11.0811 19.575 9.60833ZM12.575 9.60833V9.89166C11.4078 10.1963 10.4963 11.1078 10.1917 12.275H9.90833C8.43557 12.275 7.24166 11.0811 7.24166 9.60833C7.24166 8.13557 8.43557 6.94166 9.90833 6.94166C11.3811 6.94166 12.575 8.13557 12.575 9.60833ZM15.075 13.1083C15.075 12.1879 14.3288 11.4417 13.4083 11.4417C12.4879 11.4417 11.7417 12.1879 11.7417 13.1083C11.7417 14.0288 12.4879 14.775 13.4083 14.775C14.3288 14.775 15.075 14.0288 15.075 13.1083ZM12 2.05833H14.7833V5.83333C14.2255 6.13468 13.7439 6.55935 13.375 7.075C13.0079 6.57675 12.5392 6.16207 12 5.85833V2.05833ZM4.5 3.16666C4.03976 3.16666 3.66666 3.53976 3.66666 4V10.05H5.58333C5.55845 9.90382 5.54176 9.75637 5.53333 9.60833C5.53793 7.21375 7.48041 5.27499 9.875 5.275C10.0284 5.28024 10.1815 5.29415 10.3333 5.31666V3.16666H4.5ZM2.55833 14.5V11.7167H6.16666C6.47135 12.265 6.8923 12.7399 7.4 13.1083C6.8923 13.4767 6.47135 13.9517 6.16666 14.5H2.55833ZM4.5 34.8333H10.3333L10.3667 20.9417C10.214 20.9503 10.061 20.9503 9.90833 20.9417C7.51374 20.9417 5.57126 19.0029 5.56666 16.6083C5.57462 16.4603 5.59132 16.3128 5.61666 16.1667H3.66666V34C3.66666 34.4602 4.03976 34.8333 4.5 34.8333ZM9.875 19.275C8.92229 19.275 8.04195 18.7667 7.56559 17.9417C7.08924 17.1166 7.08924 16.1001 7.56559 15.275C8.04195 14.4499 8.92229 13.9417 9.875 13.9417H10.1583C10.463 15.1088 11.3745 16.0203 12.5417 16.325V16.6083C12.5418 18.0682 11.3681 19.2567 9.90833 19.275H9.875ZM12 35.9417H14.7833V20.3833C14.2282 20.0782 13.7472 19.6542 13.375 19.1417C13.0079 19.6399 12.5392 20.0546 12 20.3583V35.9417ZM14.2083 16.6083V16.325C15.3723 16.0177 16.2801 15.1067 16.5833 13.9417H16.875C18.3478 13.9417 19.5417 15.1356 19.5417 16.6083C19.5417 18.0811 18.3478 19.275 16.875 19.275C15.4022 19.275 14.2083 18.0811 14.2083 16.6083ZM16.4833 34.8333H18.275C18.1107 32.5005 19.3001 30.2805 21.3333 29.125L23.9917 27.55C24.0584 27.5087 24.1062 27.4429 24.125 27.3667L25.3333 22.8667L25 22.775C24.5598 22.6532 24.2996 22.1998 24.4167 21.7583L25.25 18.7583C25.3681 18.3148 25.8227 18.0502 26.2667 18.1667L35.3333 20.6667V16.1667H21.1667C21.1989 16.2985 21.2239 16.4321 21.2417 16.5667C21.2417 18.9599 19.3016 20.9 16.9083 20.9C16.7668 20.9086 16.6249 20.9086 16.4833 20.9V34.8333ZM24.4417 38.5583C23.945 38.5995 23.4449 38.5487 22.9667 38.4083C21.6762 38.05 20.6366 37.0932 20.1727 35.8368C19.7088 34.5805 19.8771 33.1777 20.625 32.0667C22.9667 33.0575 24.4845 35.3573 24.475 37.9C24.5 38.1667 24.5 38.35 24.4417 38.5583ZM31.1667 35.2167C32.2552 34.5835 33.0513 33.548 33.3833 32.3333L33.5667 31.7C31.8737 31.8343 30.566 33.2434 30.5583 34.9417C30.5636 35.1377 30.5859 35.3329 30.625 35.525L31.1667 35.2167ZM33.9917 30.0583H33.8C31.0773 30.0629 28.8713 32.269 28.8667 34.9917C28.8689 35.4869 28.9476 35.9788 29.1 36.45L26.2917 38.0667C26.2373 38.0882 26.1844 38.1133 26.1333 38.1417V37.9917C26.1513 34.996 24.5043 32.2381 21.8583 30.8333C21.8963 30.808 21.933 30.7804 21.9699 30.7526C22.0303 30.7071 22.0911 30.6612 22.1583 30.625L24.85 29C25.3051 28.7442 25.6362 28.3138 25.7667 27.8083L27 23.325L35.225 25.525L33.9917 30.0583ZM26.275 21.4083L36.7667 24.2667L37.1333 22.8333L26.6417 20.0167L26.275 21.4083Z" fill="#3D3D63"/>
</svg>
