<svg width="42" height="35" viewBox="0 0 42 35" fill="none" xmlns="http://www.w3.org/2000/svg">
<g opacity="0.2">
<path fill-rule="evenodd" clip-rule="evenodd" d="M38.64 7.33685H32.6725L29.8734 0.378113H12.1266L9.3275 7.33685H8.40175V3.85748H4.20087V7.33685H3.36C1.50762 7.33685 0 8.83559 0 10.677V31.1114C0 32.9668 1.51725 34.4751 3.38363 34.4751H38.6164C40.4827 34.4751 42 32.9668 42 31.1114V10.677C42 8.83559 40.4924 7.33685 38.64 7.33685ZM5.59814 7.33687H6.99989V5.25098H5.59814V7.33687ZM40.5984 31.1114C40.5984 32.2022 39.7102 33.0859 38.6165 33.0859H3.38373C2.28998 33.0859 1.40186 32.1987 1.40186 31.1114V10.6771C1.40186 9.6028 2.27948 8.73034 3.36011 8.73034H10.2744L13.0735 1.7716H28.9267L31.7259 8.73034H38.6401C39.7207 8.73034 40.5984 9.6028 40.5984 10.6771V31.1114Z" fill="black"/>
<path fill-rule="evenodd" clip-rule="evenodd" d="M21.0001 6.64008C14.0517 6.64008 8.40186 12.2601 8.40186 19.1684C8.40186 26.0724 14.0517 31.6924 21.0001 31.6924C27.9485 31.6924 33.5984 26.0724 33.5984 19.1684C33.5984 12.2601 27.9485 6.64008 21.0001 6.64008ZM21.0002 30.2989C14.8236 30.2989 9.79932 25.3043 9.79932 19.1684C9.79932 13.0282 14.8236 8.03357 21.0002 8.03357C27.1768 8.03357 32.2011 13.0282 32.2011 19.1684C32.2011 25.3043 27.1768 30.2989 21.0002 30.2989Z" fill="black"/>
<path fill-rule="evenodd" clip-rule="evenodd" d="M20.9999 10.8162C16.3685 10.8162 12.5981 14.5609 12.5981 19.1684C12.5981 23.7725 16.3685 27.5163 20.9999 27.5163C25.6313 27.5163 29.4016 23.7725 29.4016 19.1684C29.4016 14.5609 25.6313 10.8162 20.9999 10.8162ZM21 26.1271C17.1412 26.1271 14 23.0044 14 19.1684C14 15.328 17.1412 12.2097 21 12.2097C24.8588 12.2097 28 15.328 28 19.1684C28 23.0044 24.8588 26.1271 21 26.1271Z" fill="black"/>
<path fill-rule="evenodd" clip-rule="evenodd" d="M36.4016 10.1195C34.8564 10.1195 33.5981 11.3703 33.5981 12.9021C33.5981 14.4382 34.8564 15.6891 36.4016 15.6891C37.9425 15.6891 39.2008 14.4382 39.2008 12.9021C39.2008 11.3703 37.9425 10.1195 36.4016 10.1195ZM36.4018 14.2956C35.6291 14.2956 35 13.6701 35 12.9021C35 12.1383 35.6291 11.5129 36.4018 11.5129C37.17 11.5129 37.7991 12.1383 37.7991 12.9021C37.7991 13.6701 37.17 14.2956 36.4018 14.2956Z" fill="black"/>
</g>
</svg>
