<svg width="42" height="39" viewBox="0 0 42 39" fill="none" xmlns="http://www.w3.org/2000/svg">
<path fill-rule="evenodd" clip-rule="evenodd" d="M41.2967 10.9087C42.2634 6.51142 39.6067 2.12999 35.2607 0.954048C30.9148 -0.221893 26.4112 2.22211 25.0287 6.50684C24.2507 6.74585 23.5267 7.1342 22.8972 7.65017C22.3842 8.07869 22.0685 8.69823 22.0234 9.36517L21.8682 11.562L21.7212 11.7743L19.3774 12.1908C20.6024 10.4595 21.9907 7.74 20.9454 5.192C19.4019 1.45984 13.775 1.53334 12.0927 1.664C10.7546 1.73404 9.43523 2.00949 8.18087 2.48067C6.71087 3.0605 5.66553 3.14217 4.7917 2.73384C4.31118 2.48998 3.99915 2.00632 3.97503 1.468C3.95169 1.17624 3.77447 0.919086 3.51012 0.793417C3.24577 0.667748 2.93446 0.692653 2.69345 0.85875C2.45245 1.02485 2.31836 1.3069 2.3417 1.59867C2.40093 2.74146 3.08107 3.7601 4.11387 4.25284C5.63784 4.82482 7.32994 4.74509 8.79337 4.03234C9.8889 3.61116 11.0433 3.36319 12.2152 3.29734C15.1307 3.09317 18.5444 3.6485 19.4427 5.81267C20.5452 8.4995 17.6624 11.8315 16.9192 12.6237L12.6399 13.375L12.4275 13.2198L11.5292 11.2108C11.2629 10.599 10.754 10.1256 10.1245 9.90417C8.05988 9.20129 5.77908 9.60506 4.0812 10.974C3.57013 11.4006 3.25466 12.0168 3.20737 12.6808L3.0522 14.8777C2.12563 16.0933 1.62355 17.5795 1.62303 19.108V19.3122V19.892L0.806368 32.5095C0.614271 35.2799 2.54619 37.7477 5.2817 38.2262C8.00567 38.7037 10.6535 37.0581 11.4312 34.4042L13.2524 28.1975C13.3231 28.2015 13.394 28.2015 13.4647 28.1975C15.3842 28.1612 16.9476 26.6442 17.0417 24.7267L21.3782 23.9672C21.9559 25.3176 23.2822 26.1943 24.751 26.1967C25.2487 26.1983 25.7412 26.0954 26.1965 25.8945L30.0267 31.0967C31.6715 33.3112 34.7151 33.941 37.1036 32.5609C39.4921 31.1808 40.4665 28.2294 39.3694 25.6985L35.6617 17.1643C38.5198 16.231 40.666 13.8484 41.2967 10.9087ZM23.6567 9.4795C23.6704 9.26216 23.7704 9.0593 23.9344 8.91601C24.1516 8.7367 24.387 8.58068 24.6367 8.4505C24.6205 8.76607 24.6205 9.08227 24.6367 9.39784C24.2929 9.54973 23.9624 9.73002 23.6485 9.93684L23.6567 9.4795ZM21.9989 20.1452C20.495 18.3027 20.0418 15.8175 20.7984 13.5628L14.1099 14.7715C15.5985 16.6324 16.0272 19.1273 15.245 21.3783C15.9346 21.7753 16.4764 22.3859 16.7885 23.1178L21.125 22.3583C21.1584 21.5432 21.4664 20.7633 21.9989 20.1452ZM4.83253 12.7462C4.84626 12.5288 4.94622 12.326 5.1102 12.1827C6.35921 11.1592 8.04704 10.8506 9.57737 11.366C9.78154 11.4433 9.94624 11.5992 10.0347 11.7988L10.2144 12.2072C8.34142 11.773 6.37222 12.1496 4.7917 13.2443L4.83253 12.7462ZM13.9955 19.059C13.9955 16.0899 11.591 13.6817 8.62187 13.6772V13.7017C5.73331 13.8143 3.44964 16.1887 3.44964 19.0794C3.44964 21.9702 5.73331 24.3446 8.62187 24.4572C9.02041 24.4532 9.41738 24.4067 9.80603 24.3183C9.90996 22.3854 11.5045 20.8697 13.4402 20.8638C13.5191 20.8598 13.5981 20.8598 13.677 20.8638C13.887 20.2852 13.9948 19.6745 13.9955 19.059ZM9.8387 33.8733C9.30555 35.739 7.44927 36.9004 5.53833 36.5641C3.62739 36.2277 2.27928 34.5022 2.4152 32.5667L3.01137 23.2322C4.3266 25.0127 6.40823 26.0641 8.62187 26.066C9.11073 26.0614 9.59784 26.0067 10.0755 25.9027C10.3932 26.6502 10.9506 27.2708 11.6599 27.6667L9.8387 33.8733ZM11.569 25.2731C11.8825 26.0299 12.621 26.5233 13.4402 26.5233V26.5642C13.9845 26.5643 14.5059 26.3453 14.887 25.9566C15.268 25.5679 15.4765 25.0422 15.4655 24.498C15.4655 23.6788 14.9721 22.9403 14.2153 22.6268C13.4584 22.3134 12.5873 22.4866 12.0081 23.0659C11.4288 23.6451 11.2556 24.5163 11.569 25.2731ZM24.7837 24.5633C23.6683 24.5633 22.7629 23.6615 22.7584 22.5462C22.7564 22.1053 22.9031 21.6766 23.1749 21.3293C24.2156 22.1389 25.4642 22.6372 26.7764 22.7667C26.668 23.7863 25.8091 24.5607 24.7837 24.5633ZM24.8327 11.0965C23.1325 12.0448 22.0769 13.8374 22.0724 15.7842C22.0778 18.3975 23.9626 20.6281 26.5384 21.0695C29.1142 21.5109 31.6341 20.0351 32.5094 17.5727C32.0978 17.5464 31.6885 17.4918 31.2844 17.4093C28.0952 16.7274 25.5838 14.2701 24.8327 11.0965ZM37.9075 26.3518C38.6732 28.1215 37.9912 30.1841 36.3214 31.1484C34.6516 32.1127 32.5243 31.6725 31.3742 30.1248L27.5359 24.9145C28.0579 24.3149 28.3678 23.5601 28.4179 22.7667C31.1145 22.3848 33.3447 20.4732 34.1345 17.8667L37.9075 26.3518ZM26.3389 10.3993C26.8433 13.1088 28.9308 15.2473 31.6274 15.8168C35.3025 16.5931 38.9124 14.2474 39.696 10.5738C40.271 7.87844 39.165 5.10219 36.894 3.54063C34.623 1.97907 31.6348 1.94002 29.3238 3.4417C27.0128 4.94338 25.8346 7.68978 26.3389 10.3993Z" fill="#3D3D63"/>
</svg>
