<svg width="45" height="42" viewBox="0 0 45 42" fill="none" xmlns="http://www.w3.org/2000/svg">
<path fill-rule="evenodd" clip-rule="evenodd" d="M43.2333 33.4834H41.5C41.7279 33.0547 41.848 32.5771 41.85 32.0917V18.6667C42.2103 17.9415 42.3985 17.1431 42.4 16.3334V10.9834C42.4 9.91101 41.5307 9.04169 40.4584 9.04169H34.625V8.20836C34.6204 3.75977 31.0153 0.154618 26.5667 0.150024H17.6833C13.2348 0.154618 9.62961 3.75977 9.62502 8.20836V9.04169H3.79168C2.71933 9.04169 1.85002 9.91101 1.85002 10.9834V16.3334C1.85026 17.1459 2.0385 17.9473 2.40002 18.675V32.0917C2.40205 32.5771 2.52217 33.0547 2.75002 33.4834H1.01668C0.556446 33.4834 0.18335 33.8565 0.18335 34.3167C0.18335 34.7769 0.556446 35.15 1.01668 35.15H17.0167L16.9167 36.5667C16.9008 36.8136 16.9954 37.0548 17.175 37.225L21.5417 41.4584C21.8657 41.776 22.3843 41.776 22.7083 41.4584L27.075 37.225C27.2546 37.0548 27.3492 36.8136 27.3333 36.5667L27.2333 35.15H43.2333C43.6936 35.15 44.0667 34.7769 44.0667 34.3167C44.0667 33.8565 43.6936 33.4834 43.2333 33.4834ZM11.2917 8.20836C11.2963 4.68024 14.1552 1.82128 17.6833 1.81669H26.5667C30.0948 1.82128 32.9538 4.68024 32.9584 8.20836V9.04169H31.2917V8.20836C31.2917 5.59881 29.1762 3.48336 26.5667 3.48336H17.6833C15.0738 3.48336 12.9584 5.59881 12.9584 8.20836V9.04169H11.2917V8.20836ZM29.625 9.04169V8.20836C29.625 7.39724 29.3028 6.61934 28.7293 6.04579C28.1557 5.47224 27.3778 5.15002 26.5667 5.15002H17.6833C15.9943 5.15002 14.625 6.51929 14.625 8.20836V9.04169H16.225C16.32 8.78669 16.4581 8.54991 16.6334 8.34169C17.1068 7.78324 17.8012 7.46039 18.5333 7.45836H25.7167C26.4488 7.46039 27.1432 7.78324 27.6167 8.34169C27.7919 8.54991 27.93 8.78669 28.025 9.04169H29.625ZM5.45835 33.4834C5.08926 33.4834 4.73528 33.3367 4.47429 33.0757C4.2133 32.8148 4.06668 32.4608 4.06668 32.0917V20.6167C4.95833 21.256 6.02787 21.5999 7.12502 21.6H7.95835V22.65C7.89934 23.7792 8.46822 24.8489 9.43749 25.4312C10.4068 26.0135 11.6183 26.0135 12.5875 25.4312C13.5568 24.8489 14.1257 23.7792 14.0667 22.65V21.6H17.9583L17.125 33.4834H5.45835ZM9.62502 20.15V22.65C9.58458 23.1714 9.83984 23.6714 10.2858 23.9445C10.7318 24.2176 11.2932 24.2176 11.7392 23.9445C12.1852 23.6714 12.4405 23.1714 12.4 22.65V20.15H9.62502ZM18.0417 19.9334H14.0667V19.875C14.0689 19.5067 13.9241 19.1527 13.6645 18.8915C13.4048 18.6302 13.0517 18.4834 12.6833 18.4834H9.35002C8.58142 18.4834 7.95835 19.1064 7.95835 19.875V19.9334H7.12502C5.13544 19.9334 3.52128 18.3229 3.51668 16.3334V10.9834C3.51668 10.8315 3.6398 10.7084 3.79168 10.7084H16.125L16.7083 14.1667C16.8399 14.9928 17.4899 15.6395 18.3167 15.7667L18.0417 19.9334ZM18.7917 33.5584L18.6083 36.3334L19.275 36.925L25.4583 33.35L25.2083 29.8584L18.7917 33.5584ZM24.4917 19.1667L24.725 22.6584L19.3167 25.7834L19.5667 22L24.4917 19.1667ZM19.9917 15.8334L19.7083 20L24.3667 17.35L24.2584 15.8334H19.9917ZM24.85 24.5084L25.0833 28.0084L18.925 31.5584L19.1833 27.7834L24.85 24.5084ZM20.5 38.1L22.125 39.6667L25.6417 36.2584L25.5667 35.175L20.5 38.1ZM25.625 14.0917H18.625C18.488 14.0933 18.3708 13.9938 18.35 13.8584L17.7167 10.0584C17.6758 9.81736 17.7429 9.57058 17.9 9.38336C18.0584 9.19824 18.2898 9.09167 18.5333 9.09169H25.7167C25.9603 9.09167 26.1917 9.19824 26.35 9.38336C26.5072 9.57058 26.5742 9.81736 26.5333 10.0584L25.9 13.8584C25.8955 14.007 25.7737 14.1251 25.625 14.125V14.0917ZM27.5417 14.1667C27.4069 14.9896 26.7576 15.6322 25.9333 15.7584L26.2083 19.9334H30.1833V19.875C30.1811 19.5067 30.3259 19.1527 30.5856 18.8915C30.8452 18.6302 31.1984 18.4834 31.5667 18.4834H34.9C35.6686 18.4834 36.2917 19.1064 36.2917 19.875V19.9334H37.125C39.1146 19.9334 40.7288 18.3229 40.7333 16.3334V10.9834C40.7333 10.8315 40.6102 10.7084 40.4584 10.7084H28.125L27.5417 14.1667ZM34.625 20.15V22.65C34.6655 23.1714 34.4102 23.6714 33.9642 23.9445C33.5182 24.2176 32.9568 24.2176 32.5108 23.9445C32.0648 23.6714 31.8096 23.1714 31.85 22.65V20.15H34.625ZM26.2917 21.6L27.125 33.4834H38.7917C39.5472 33.4653 40.1502 32.8475 40.15 32.0917V20.6167C39.2584 21.256 38.1888 21.5999 37.0917 21.6H36.2584V22.65C36.3174 23.7792 35.7485 24.8489 34.7792 25.4312C33.8099 26.0135 32.5984 26.0135 31.6292 25.4312C30.6599 24.8489 30.091 23.7792 30.15 22.65V21.6H26.2917Z" fill="#3D3D63"/>
</svg>
