<svg width="46" height="38" viewBox="0 0 46 38" fill="none" xmlns="http://www.w3.org/2000/svg">
<path fill-rule="evenodd" clip-rule="evenodd" d="M45.1 35.5667L36.95 24C40.6083 17.2109 38.9356 8.78097 32.9624 3.90298C26.9892 -0.975019 18.395 -0.929386 12.4739 4.01177C6.55283 8.95292 4.9698 17.4002 8.69999 24.15L0.649987 35.5667C0.351774 35.9824 0.312462 36.5304 0.548282 36.9845C0.784102 37.4385 1.25505 37.7215 1.76665 37.7167H43.9833C44.4949 37.7215 44.9659 37.4385 45.2017 36.9845C45.4375 36.5304 45.3982 35.9824 45.1 35.5667ZM11.7667 22.5917L14.7667 26.85L13.4333 28.7417L12.35 27.6583C12.1968 27.5064 11.9907 27.4197 11.775 27.4167C11.5593 27.4197 11.3531 27.5064 11.2 27.6583L9.00832 29.8333L7.62499 28.475L11.7667 22.5917ZM26.5667 11.0083L27.25 10.0917L23.6 10.0833V12.9H27.25L26.5667 11.9833C26.3567 11.6922 26.3567 11.2994 26.5667 11.0083ZM22.775 18.3083L27.5167 25.0417L25.8917 26.6667L23.4417 24.2167C23.1197 23.9098 22.6136 23.9098 22.2917 24.2167L19.9833 26.5L18.225 24.7417L22.775 18.3083ZM19.4 28.2583L17.2667 26.125L10.25 36.0917H35.325L28.475 26.375L26.475 28.3833C26.1531 28.6902 25.6469 28.6902 25.325 28.3833L22.875 25.9333L20.55 28.2583C20.2281 28.5652 19.7219 28.5652 19.4 28.2583ZM30.875 26.9583L33.9667 22.575L38.1333 28.4583L36.7417 29.8333L34.5417 27.6583C34.3885 27.5064 34.1824 27.4197 33.9667 27.4167C33.7509 27.4197 33.5448 27.5064 33.3917 27.6583L32.2083 28.85L30.875 26.9583ZM17.4421 2.92697C11.9319 5.11605 8.31523 10.4458 8.31665 16.375C8.31473 18.5408 8.79884 20.6795 9.73332 22.6333L10.6417 21.35C10.9101 21.0061 11.3221 20.8051 11.7583 20.8051C12.1946 20.8051 12.6065 21.0061 12.875 21.35L15.7417 25.4083L21.6417 17.075C21.7255 16.9618 21.8301 16.8657 21.95 16.7917V9.29166C21.95 8.83142 22.3231 8.45832 22.7833 8.45832H28.8917C29.1927 8.4727 29.4625 8.64849 29.5972 8.91803C29.732 9.18757 29.7108 9.50888 29.5417 9.75832L28.2333 11.5L29.5417 13.2167C29.7114 13.4673 29.7319 13.7903 29.5951 14.0604C29.4583 14.3305 29.1858 14.5052 28.8833 14.5167H23.6V16.775C23.7155 16.8515 23.817 16.9474 23.9 17.0583L29.8583 25.5583L32.825 21.35C33.0935 21.0061 33.5054 20.8051 33.9417 20.8051C34.3779 20.8051 34.7899 21.0061 35.0583 21.35L35.8917 22.4917C38.4 17.1192 37.3762 10.7601 33.3084 6.4464C29.2405 2.13272 22.9524 0.737882 17.4421 2.92697ZM6.68332 29.8333L8.43332 31.5833C8.75524 31.8902 9.2614 31.8902 9.58332 31.5833L11.7833 29.3917L12.4917 30.1L8.63332 35.575C8.52535 35.733 8.45155 35.9118 8.41665 36.1H2.25832L6.68332 29.8333ZM36.9417 35.575C37.0471 35.7335 37.1181 35.9123 37.15 36.1L43.5333 36.0917L39.1083 29.825L37.3583 31.575C37.0364 31.8819 36.5302 31.8819 36.2083 31.575L33.9917 29.375L33.1583 30.2083L36.9417 35.575Z" fill="#3D3D63"/>
</svg>
