<svg width="43" height="36" viewBox="0 0 43 36" fill="none" xmlns="http://www.w3.org/2000/svg">
<path fill-rule="evenodd" clip-rule="evenodd" d="M40.1917 16.3667H39.9167V3.44165C39.9167 2.06094 38.7974 0.94165 37.4167 0.94165H2.97499C1.59428 0.94165 0.474993 2.06094 0.474993 3.44165V24.55C0.472777 25.0664 0.676366 25.5624 1.04074 25.9283C1.40511 26.2943 1.90025 26.5 2.41666 26.5H13.7583L12.925 29.5833H11.8583C10.1895 29.5853 8.74077 30.7339 8.35833 32.3583H6.30833C5.84809 32.3583 5.47499 32.7314 5.47499 33.1917C5.47499 33.6519 5.84809 34.025 6.30833 34.025H29.375C29.4533 35.0352 30.2951 35.8153 31.3083 35.8167H40.1917C41.2686 35.8167 42.1417 34.9436 42.1417 33.8666V18.3167C42.1417 17.2397 41.2686 16.3667 40.1917 16.3667ZM13.25 2.60832H37.4167C37.8769 2.60832 38.25 2.98141 38.25 3.44165V16.3667H31.3083C30.2314 16.3667 29.3583 17.2397 29.3583 18.3167V20.9417H13.25V2.60832ZM28.525 29.5833C28.8056 29.5863 29.085 29.6198 29.3583 29.6833L29.3917 26.5H26.6583L27.4917 29.5833H28.525ZM2.14166 3.44165C2.14166 2.98141 2.51476 2.60832 2.97499 2.60832H11.5833V20.9417H2.14166V3.44165ZM2.14166 24.55C2.14159 24.7033 2.26344 24.8288 2.41666 24.8333H29.3583V22.6083H2.14166V24.55ZM25.75 29.5833H14.625L15.4583 26.5H24.9167L25.75 29.5833ZM28.5167 31.25H11.8583C11.1102 31.2514 10.4294 31.6826 10.1083 32.3583H29.35V31.4417C29.0906 31.3147 28.8055 31.2491 28.5167 31.25ZM40.4667 33.8666C40.4667 33.9418 40.4368 34.0139 40.3837 34.067C40.3305 34.1201 40.2585 34.15 40.1833 34.15H31.3083C31.2332 34.15 31.1611 34.1201 31.108 34.067C31.0548 34.0139 31.025 33.9418 31.025 33.8666V32.6667H40.475L40.4667 33.8666ZM31.025 31.0333H40.4667L40.475 18.3167C40.475 18.1602 40.3481 18.0333 40.1917 18.0333H31.3083C31.1518 18.0333 31.025 18.1602 31.025 18.3167V31.0333Z" fill="#3D3D63"/>
</svg>
