<svg width="40" height="44" viewBox="0 0 40 44" fill="none" xmlns="http://www.w3.org/2000/svg">
<path fill-rule="evenodd" clip-rule="evenodd" d="M36.15 41.4417H38.3833V41.45C38.8436 41.45 39.2167 41.8231 39.2167 42.2833C39.2167 42.7436 38.8436 43.1167 38.3833 43.1167H1.61666C1.15642 43.1167 0.783325 42.7436 0.783325 42.2833C0.783325 41.8231 1.15642 41.45 1.61666 41.45H3.84999V40.825C3.85459 36.5711 7.30438 33.125 11.5583 33.125H12.5L12.2 32.5833C12.0511 32.3255 12.0511 32.0078 12.2 31.75L13.4 29.6667C11.3246 27.8895 10.091 25.3225 9.99999 22.5917C8.06366 22.276 6.6255 20.6279 6.57499 18.6667V17.6083C6.61133 16.2906 7.70713 15.2507 9.02499 15.2833H9.99999V14.375H8.74166C7.35156 14.2966 6.2645 13.1465 6.2645 11.7542C6.2645 10.3619 7.35156 9.21177 8.74166 9.13335H10.8333V4.80002C10.8316 3.53546 11.4417 2.34819 12.471 1.6135C13.5002 0.878802 14.8213 0.687483 16.0167 1.10002L18.7167 2.00002C19.5488 2.2832 20.4512 2.2832 21.2833 2.00002L23.9917 1.10002C25.186 0.690849 26.5045 0.883813 27.5315 1.61809C28.5585 2.35237 29.1675 3.53752 29.1667 4.80002V9.13335H31.2667C32.6568 9.21177 33.7438 10.3619 33.7438 11.7542C33.7438 13.1465 32.6568 14.2966 31.2667 14.375H30V15.2833H30.975C32.2929 15.2507 33.3886 16.2906 33.425 17.6083V18.6667C33.3745 20.6279 31.9363 22.276 30 22.5917C29.9092 25.3267 28.6722 27.8974 26.5917 29.675L27.7917 31.7583C27.9405 32.0162 27.9405 32.3338 27.7917 32.5917L27.5 33.1167H27.7667H28.4417C32.6956 33.1167 36.1454 36.5627 36.15 40.8167V41.4417ZM8.24166 18.6667C8.28284 19.7059 8.9954 20.5975 9.99999 20.8667V16.95H9.02499C8.62715 16.9163 8.27695 17.2106 8.24166 17.6083V18.6667ZM26.1 32.175L23.525 36.8917L21.2 34.575L25.3 30.8L26.1 32.175ZM31.7583 17.6083C31.723 17.2106 31.3728 16.9163 30.975 16.95H30V20.8667C31.0046 20.5975 31.7171 19.7059 31.7583 18.6667V17.6083ZM12.5 4.80002C12.4947 4.07386 12.8468 3.39152 13.4417 2.97502C14.031 2.55188 14.7886 2.4401 15.475 2.67502L18.1667 3.60002C19.3504 4.00009 20.6329 4.00009 21.8167 3.60002L24.5083 2.67502C25.1947 2.4401 25.9524 2.55188 26.5417 2.97502C27.1428 3.3878 27.5015 4.07076 27.5 4.80002V6.11668H12.5V4.80002ZM27.5 7.78335H12.5V9.13335H27.5V7.78335ZM8.73333 12.7083C8.24079 12.6623 7.86426 12.2489 7.86426 11.7542C7.86426 11.2595 8.24079 10.8461 8.73333 10.8H31.2333C31.7259 10.8461 32.1024 11.2595 32.1024 11.7542C32.1024 12.2489 31.7259 12.6623 31.2333 12.7083H8.73333ZM11.6667 14.375V22.3C11.6667 26.9024 15.3976 30.6334 20 30.6334C24.6024 30.6334 28.3333 26.9024 28.3333 22.3V14.375H11.6667ZM20 32.1167C20.5216 32.1161 21.0424 32.0771 21.5583 32L20 33.4167L18.4417 32C18.9575 32.0771 19.4784 32.1161 20 32.1167ZM16.475 36.9333L18.8 34.6167L14.7333 30.8417L13.9 32.2167L16.475 36.9333ZM17.225 41.4834H5.51666V40.8584C5.52126 37.5249 8.22486 34.825 11.5583 34.825H12.4417C12.7545 34.8223 13.0666 34.7944 13.375 34.7417L15.55 38.6667C15.6731 38.899 15.8985 39.0596 16.1583 39.1H16.2833C16.5031 39.0969 16.7128 39.007 16.8667 38.85L17.05 38.675C17.1498 39.0309 17.4721 39.2786 17.8417 39.2834L17.225 41.4834ZM19.6083 39.3333L18.9667 41.4833H21.0333L20.3917 39.3333H19.6083ZM21.4667 37.6667H18.55L18.4833 37.2917L20 35.7333L21.525 37.25L21.4667 37.6667ZM22.775 41.4833H34.4917L34.5 40.8167C34.4954 37.4832 31.7918 34.7833 28.4583 34.7833H27.7833C27.4079 34.7793 27.0337 34.7374 26.6667 34.6583L24.425 38.7167C24.3019 38.949 24.0764 39.1096 23.8167 39.15H23.6917C23.4719 39.1469 23.2622 39.057 23.1083 38.9L22.925 38.725C22.8252 39.0809 22.5029 39.3286 22.1333 39.3333L22.775 41.4833Z" fill="#3D3D63"/>
</svg>
