<svg width="40" height="38" viewBox="0 0 40 38" fill="none" xmlns="http://www.w3.org/2000/svg">
<path fill-rule="evenodd" clip-rule="evenodd" d="M36.5888 35.5848H38.7375C39.1644 35.5848 39.5104 35.9309 39.5104 36.3577C39.5104 36.7846 39.1644 37.1306 38.7375 37.1306H1.63751C1.21064 37.1306 0.864594 36.7846 0.864594 36.3577C0.864594 35.9309 1.21064 35.5848 1.63751 35.5848H3.78622V22.6771C3.46624 22.5183 3.17185 22.3125 2.91282 22.0665C2.13973 21.3251 1.70164 20.301 1.69934 19.2299C1.69133 19.1631 1.69133 19.0957 1.69934 19.0289L4.20359 9.97034C4.29983 9.62621 4.61942 9.39291 4.97651 9.40611H11.2294V7.28059H9.41305C8.98618 7.28059 8.64014 6.93455 8.64014 6.50768V1.2673C8.64014 0.840431 8.98618 0.494385 9.41305 0.494385H30.962C31.3888 0.494385 31.7349 0.840431 31.7349 1.2673V6.50768C31.7349 6.93455 31.3888 7.28059 30.962 7.28059H29.1456V9.40611H35.4294C35.7865 9.39291 36.1061 9.62621 36.2023 9.97034L38.7375 19.1681C38.7455 19.2348 38.7455 19.3023 38.7375 19.369C38.739 20.8112 37.8995 22.1218 36.5888 22.7235V35.5848ZM26.4249 7.43518V9.25153H27.5998V7.43518H26.4249ZM10.1937 2.04022H30.1891V5.73476H10.186L10.1937 2.04022ZM13.9578 9.26699V7.45063L12.7752 7.43518V9.26699H13.9578ZM15.5036 7.29605H24.8791V9.42157H15.4959L15.5036 7.29605ZM24.9023 35.5848H29.9108V26.1629H24.9023V35.5848ZM35.043 35.5848H31.4566V25.39C31.4566 24.9632 31.1106 24.6171 30.6837 24.6171H24.1294C23.7025 24.6171 23.3565 24.9632 23.3565 25.39V35.5848H5.33205V23.0867H5.54847C6.4842 23.0531 7.37174 22.6633 8.02953 21.9969C8.14794 21.8826 8.25654 21.7585 8.35416 21.6259C9.06033 22.5464 10.1543 23.0862 11.3144 23.0867C12.3041 23.0944 13.2548 22.7013 13.9501 21.9969C14.0644 21.8815 14.1728 21.7602 14.2747 21.6337C14.9808 22.5491 16.0712 23.0857 17.2272 23.0867C18.2168 23.0935 19.1671 22.7005 19.8629 21.9969C19.9792 21.8806 20.0876 21.7566 20.1875 21.6259C20.8937 22.5464 21.9876 23.0862 23.1478 23.0867C24.1346 23.0914 25.0818 22.6986 25.7757 21.9969C25.892 21.8806 26.0004 21.7566 26.1003 21.6259C26.8065 22.5464 27.9005 23.0862 29.0606 23.0867C30.0501 23.0935 31.0005 22.7005 31.6962 21.9969C31.8106 21.8815 31.9189 21.7602 32.0209 21.6337C32.7254 22.5509 33.8168 23.088 34.9734 23.0867H35.043V35.5848ZM32.7938 19.369C32.7938 20.574 33.7684 21.5521 34.9734 21.5564C35.547 21.5619 36.0986 21.3362 36.5038 20.9303C36.8934 20.5443 37.1226 20.0252 37.1453 19.4772L34.8266 10.9751H31.2711L32.1909 15.9914C32.2661 16.4093 31.99 16.8097 31.5726 16.8879H31.4334C31.0555 16.8941 30.7285 16.626 30.6605 16.2542L29.6867 10.9597H26.1003L26.5718 16.0377C26.5911 16.2429 26.5277 16.4473 26.3956 16.6055C26.2635 16.7637 26.0738 16.8626 25.8684 16.8802H25.7989C25.3978 16.8818 25.0621 16.5764 25.026 16.1769L24.5468 10.9519H20.9604V16.1073C20.9604 16.5342 20.6144 16.8802 20.1875 16.8802C19.7606 16.8802 19.4146 16.5342 19.4146 16.1073V10.9288H15.8205L15.3413 16.1537C15.3052 16.5532 14.9695 16.8587 14.5684 16.857H14.4988C14.2935 16.8394 14.1038 16.7405 13.9717 16.5823C13.8396 16.4241 13.7762 16.2197 13.7955 16.0146L14.267 10.9365H10.6806L9.70676 16.231C9.63877 16.6028 9.3118 16.8709 8.93384 16.8648H8.79472C8.37729 16.7865 8.10117 16.3862 8.17638 15.9682L9.09616 10.9519H5.54074L3.22199 19.3304C3.24745 19.946 3.51066 20.5279 3.95626 20.9535C4.36907 21.3548 4.92657 21.5722 5.50209 21.5564C6.66945 21.5025 7.58663 20.5376 7.58124 19.369C7.58124 18.9421 7.92729 18.5961 8.35416 18.5961C8.78103 18.5961 9.12707 18.9421 9.12707 19.369C9.12707 20.5771 10.1064 21.5564 11.3144 21.5564C12.5225 21.5564 13.5018 20.5771 13.5018 19.369C13.5018 18.9421 13.8478 18.5961 14.2747 18.5961C14.7016 18.5961 15.0476 18.9421 15.0476 19.369C14.9993 20.1801 15.4046 20.9511 16.1001 21.3712C16.7956 21.7914 17.6666 21.7914 18.3621 21.3712C19.0576 20.9511 19.4629 20.1801 19.4146 19.369C19.4146 18.9421 19.7606 18.5961 20.1875 18.5961C20.6144 18.5961 20.9604 18.9421 20.9604 19.369C20.9647 20.571 21.938 21.5444 23.1401 21.5486C24.3451 21.5444 25.3197 20.5663 25.3197 19.3613C25.3197 18.9344 25.6657 18.5884 26.0926 18.5884C26.5195 18.5884 26.8655 18.9344 26.8655 19.3613C26.8655 20.5693 27.8448 21.5486 29.0529 21.5486C29.6329 21.5563 30.191 21.3275 30.5987 20.9148C31.0126 20.5067 31.2463 19.9502 31.2479 19.369C31.2479 18.9421 31.594 18.5961 32.0209 18.5961C32.4477 18.5961 32.7938 18.9421 32.7938 19.369Z" fill="#3D3D63"/>
</svg>
